HIERARCHY
ROOT hip
{
	OFFSET 0.000000 0.000000 0.000000
	CHANNELS 6 Xposition Yposition Zposition Zrotation Yrotation Xrotation 
	JOINT lhipjoint
	{
		OFFSET 0.000000 0.000000 0.000000
		CHANNELS 3 Zrotation Yrotation Xrotation
		JOINT lfemur
		{
			OFFSET 1.363060 -1.794630 0.839290
			CHANNELS 3 Zrotation Yrotation Xrotation
			JOINT ltibia
			{
				OFFSET 2.448110 -6.726130 0.000000
				CHANNELS 3 Zrotation Yrotation Xrotation
				JOINT lfoot
				{
					OFFSET 2.562200 -7.039590 0.000000
					CHANNELS 3 Zrotation Yrotation Xrotation
					JOINT ltoes
					{
						OFFSET 0.157640 -0.433110 2.322550
						CHANNELS 3 Zrotation Yrotation Xrotation
						End Site
						{
							OFFSET 0.000000 0.000000 0.000000
						}
					}
				}
			}
		}
	}
	JOINT rhipjoint
	{
		OFFSET 0.000000 0.000000 0.000000
		CHANNELS 3 Zrotation Yrotation Xrotation
		JOINT rfemur
		{
			OFFSET -1.305520 -1.794630 0.839290
			CHANNELS 3 Zrotation Yrotation Xrotation
			JOINT rtibia
			{
				OFFSET -2.542530 -6.985550 0.000000
				CHANNELS 3 Zrotation Yrotation Xrotation
				JOINT rfoot
				{
					OFFSET -2.568260 -7.056230 0.000000
					CHANNELS 3 Zrotation Yrotation Xrotation
					JOINT rtoes
					{
						OFFSET -0.164730 -0.452590 2.363150
						CHANNELS 3 Zrotation Yrotation Xrotation
						End Site
						{
							OFFSET 0.000000 0.000000 0.000000
						}
					}
				}
			}
		}
	}
	JOINT lowerback
	{
		OFFSET 0.000000 0.000000 0.000000
		CHANNELS 3 Zrotation Yrotation Xrotation
		JOINT upperback
		{
			OFFSET 0.028270 2.035590 -0.193380
			CHANNELS 3 Zrotation Yrotation Xrotation
			JOINT thorax
			{
				OFFSET 0.056720 2.048850 -0.042750
				CHANNELS 3 Zrotation Yrotation Xrotation
				JOINT lowerneck
				{
					OFFSET 0.000000 0.000000 0.000000
					CHANNELS 3 Zrotation Yrotation Xrotation
					JOINT upperneck
					{
						OFFSET -0.054170 1.746240 0.172020
						CHANNELS 3 Zrotation Yrotation Xrotation
						JOINT head
						{
							OFFSET 0.104070 1.761360 -0.123970
							CHANNELS 3 Zrotation Yrotation Xrotation
							End Site
							{
								OFFSET 0.000000 0.000000 0.000000
							}
						}
					}
				}
				JOINT lclavicle
				{
					OFFSET 0.000000 0.000000 0.000000
					CHANNELS 3 Zrotation Yrotation Xrotation
					JOINT lhumerus
					{
						OFFSET 3.362410 1.200890 -0.311210
						CHANNELS 3 Zrotation Yrotation Xrotation
						JOINT lradius
						{
							OFFSET 4.983000 -0.000000 -0.000000
							CHANNELS 3 Zrotation Yrotation Xrotation
							JOINT lwrist
							{
								OFFSET 3.483560 -0.000000 -0.000000
								CHANNELS 3 Zrotation Yrotation Xrotation
								JOINT lhand
								{
									OFFSET 0.000000 0.000000 0.000000
									CHANNELS 3 Zrotation Yrotation Xrotation
									JOINT lfingers
									{
										OFFSET 0.715260 -0.000000 -0.000000
										CHANNELS 3 Zrotation Yrotation Xrotation
										End Site
										{
											OFFSET 0.000000 0.000000 0.000000
										}
									}
								}
								JOINT lthumb
								{
									OFFSET 0.000000 0.000000 0.000000
									CHANNELS 3 Zrotation Yrotation Xrotation
									End Site
									{
										OFFSET 0.000000 0.000000 0.000000
									}
								}
							}
						}
					}
				}
				JOINT rclavicle
				{
					OFFSET 0.000000 0.000000 0.000000
					CHANNELS 3 Zrotation Yrotation Xrotation
					JOINT rhumerus
					{
						OFFSET -3.136600 1.374050 -0.404650
						CHANNELS 3 Zrotation Yrotation Xrotation
						JOINT rradius
						{
							OFFSET -5.241900 -0.000000 -0.000000
							CHANNELS 3 Zrotation Yrotation Xrotation
							JOINT rwrist
							{
								OFFSET -3.444170 -0.000000 -0.000000
								CHANNELS 3 Zrotation Yrotation Xrotation
								JOINT rhand
								{
									OFFSET 0.000000 0.000000 0.000000
									CHANNELS 3 Zrotation Yrotation Xrotation
									JOINT rfingers
									{
										OFFSET -0.622530 -0.000000 -0.000000
										CHANNELS 3 Zrotation Yrotation Xrotation
										End Site
										{
											OFFSET 0.000000 0.000000 0.000000
										}
									}
								}
								JOINT rthumb
								{
									OFFSET 0.000000 0.000000 0.000000
									CHANNELS 3 Zrotation Yrotation Xrotation
									End Site
									{
										OFFSET 0.000000 0.000000 0.000000
									}
								}
							}
						}
					}
				}
			}
		}
	}
}
MOTION
Frames: 8
Frame Time: 0.008333
0.118688 1.810041 0.545370 -178.935923 24.763120 111.866466 -0.936690 1.251615 -0.809004 6.867311 -8.290428 -55.365824 13.025200 18.510134 68.632393 1.029465 5.061543 23.168990 2.632000 -10.074000 -29.216900 -1.229965 -1.353825 -0.769307 25.596067 17.395467 -66.436521 -21.134939 -19.757286 92.151836 0.580864 -12.860000 20.280724 -0.036800 -1.238200 3.404400 -7.642869 -4.890552 61.702350 0.978947 -0.580099 1.320065 5.147712 4.256735 6.757286 1.690020 1.050198 -2.887293 -5.476374 3.002751 1.531580 -0.132800 1.974400 -0.615700 -0.583860 2.277442 1.559340 -76.027683 13.027095 48.272563 123.455819 -55.647328 -81.973104 2.567815 -0.629554 132.967097 37.335477 27.167530 17.774200 -7.125000 0.000000 0.000000 11.204000 58.805100 3.811200 2.738588 1.164093 3.289933 82.896430 -26.363738 32.466491 -144.575628 38.482346 -104.490282 1.158074 -1.637146 -113.729399 -9.493819 8.331033 -1.157400 7.125000 0.000000 0.000000 13.887700 -21.207700 8.161700 
0.105159 1.807274 0.548240 -178.871253 24.988794 111.805977 -0.933653 1.255389 -0.806981 7.069235 -8.196626 -55.272708 13.005988 18.523966 68.573865 1.039843 5.097584 23.262729 2.620900 -10.054400 -29.153100 -1.233265 -1.346692 -0.780361 25.898543 17.343308 -66.225222 -21.076197 -19.749197 91.995687 0.564718 -12.768612 20.295840 -0.040700 -1.302600 3.581700 -7.589820 -5.081829 61.806907 1.008109 -0.714907 1.364161 5.247679 4.193285 6.900943 1.825892 1.112360 -2.919925 -5.557842 3.083101 1.505996 -0.202600 2.012200 -0.616600 -0.588671 2.311247 1.577002 -75.678860 12.482282 48.729283 123.086996 -55.766290 -81.596575 2.578272 -0.654802 133.246914 37.321692 27.127944 17.724500 -7.125000 0.000000 0.000000 11.191200 58.727500 3.785900 2.767395 1.121390 3.291160 82.525907 -25.973207 32.800802 -144.542320 38.580485 -104.413441 1.152967 -1.619531 -114.724407 -9.463860 7.951620 -1.100500 7.125000 0.000000 0.000000 13.934400 -21.613800 8.058100 
0.091322 1.803994 0.550802 -178.812806 25.217517 111.739016 -0.929422 1.259100 -0.804270 7.265382 -8.083846 -55.180865 12.983586 18.538349 68.511794 1.052324 5.095242 23.337568 2.626800 -10.064900 -29.187300 -1.236322 -1.339675 -0.791201 26.188998 17.307361 -66.012890 -21.018458 -19.740250 91.836895 0.550596 -12.709783 20.332814 -0.043400 -1.344700 3.697800 -7.540227 -5.265921 61.923605 1.036432 -0.841811 1.406437 5.346633 4.133415 7.041719 1.957513 1.173469 -2.970421 -5.629071 3.160695 1.483406 -0.266200 2.048600 -0.611200 -0.594375 2.346654 1.592421 -75.295877 11.950427 49.235246 122.699282 -55.887757 -81.199564 2.591185 -0.674122 133.513701 37.297963 27.193384 17.741300 -7.125000 0.000000 0.000000 11.170800 58.768800 3.790000 2.796176 1.074252 3.292837 82.087720 -25.494544 33.185571 -144.541513 38.644798 -104.384304 1.149377 -1.598470 -115.788116 -9.580668 7.759678 -1.090100 7.125000 0.000000 0.000000 13.860100 -21.829600 7.942300 
0.077280 1.800202 0.553364 -178.716143 25.432907 111.705541 -0.927556 1.261865 -0.802122 7.468072 -8.020000 -55.115540 12.965291 18.549057 68.452833 1.059985 5.142700 23.421727 2.601000 -10.019300 -29.039300 -1.241098 -1.334555 -0.799534 26.443732 17.271146 -65.837749 -20.965629 -19.733033 91.684624 0.543001 -12.698291 20.376013 -0.049600 -1.438000 3.954700 -7.454975 -5.481895 62.032272 1.064930 -0.997431 1.442701 5.424420 4.064018 7.166677 2.117489 1.251717 -3.029499 -5.726138 3.255281 1.482303 -0.347600 2.090400 -0.591400 -0.600059 2.380066 1.606336 -74.874755 11.424860 49.765320 122.275663 -56.020706 -80.764814 2.606685 -0.690074 133.706863 37.260055 27.274822 17.760100 -7.125000 0.000000 0.000000 11.134500 58.823500 3.792100 2.823290 1.025443 3.293713 81.627934 -24.971041 33.641870 -144.574374 38.672339 -104.394471 1.146674 -1.577143 -116.753608 -9.764040 7.700001 -1.107100 7.125000 0.000000 0.000000 13.726100 -21.908400 7.835500 
0.062829 1.796819 0.556849 -178.651270 25.647740 111.639634 -0.925377 1.266245 -0.798462 7.654695 -7.942065 -55.018758 12.944134 18.559877 68.388707 1.072632 5.169227 23.523583 2.577500 -9.977500 -28.903900 -1.243614 -1.328342 -0.808098 26.692204 17.228445 -65.627942 -20.910570 -19.724179 91.528152 0.537964 -12.679337 20.394165 -0.056100 -1.528500 4.204200 -7.410680 -5.668884 62.168262 1.092356 -1.136562 1.477714 5.513033 3.998753 7.285126 2.287935 1.324658 -3.081688 -5.818017 3.344679 1.465469 -0.429800 2.130700 -0.579100 -0.606333 2.415231 1.620005 -74.422376 10.857911 50.326002 121.877926 -56.139867 -80.352066 2.624275 -0.698871 133.828115 37.163300 27.387063 17.769100 -7.125000 0.000000 0.000000 11.027600 58.904500 3.776600 2.851757 0.974643 3.295490 81.128712 -24.386379 34.176676 -144.616229 38.686527 -104.421009 1.145387 -1.555213 -117.610461 -10.026964 7.757700 -1.152400 7.125000 0.000000 0.000000 13.524500 -21.863400 7.728100 
0.049812 1.792617 0.558489 -178.590493 25.847860 111.583161 -0.921736 1.269972 -0.796237 7.822251 -7.849651 -54.939878 12.924690 18.571903 68.332785 1.084587 5.180177 23.606645 2.573400 -9.970200 -28.880200 -1.246253 -1.321797 -0.817849 26.915431 17.213913 -65.446259 -20.864346 -19.715187 91.390887 0.540355 -12.706145 20.410179 -0.061700 -1.602100 4.407200 -7.369293 -5.848447 62.273182 1.117553 -1.266834 1.516315 5.605798 3.936546 7.420916 2.392766 1.386046 -3.145503 -5.859921 3.420185 1.456587 -0.472800 2.165900 -0.564100 -0.617724 2.454449 1.632674 -73.965008 10.240411 50.915641 121.478811 -56.257398 -79.934063 2.642246 -0.706828 133.901720 37.064503 27.474836 17.759900 -7.125000 0.000000 0.000000 10.917000 58.956200 3.751700 2.877579 0.919693 3.297048 80.594061 -23.743602 34.781604 -144.694291 38.667254 -104.484923 1.144315 -1.532670 -118.197481 -10.359636 7.884969 -1.220400 7.125000 0.000000 0.000000 13.265700 -21.736800 7.611300 
0.039460 1.788620 0.561051 -178.535735 26.030389 111.532195 -0.917880 1.274521 -0.793830 7.988371 -7.766207 -54.864502 12.906076 18.583076 68.273152 1.093639 5.231953 23.703089 2.530100 -9.892500 -28.629200 -1.248506 -1.314693 -0.827381 27.122147 17.197053 -65.272949 -20.822478 -19.706452 91.264994 0.544851 -12.741857 20.420341 -0.065900 -1.656200 4.556400 -7.360523 -6.015793 62.354486 1.141465 -1.409020 1.554486 5.696588 3.863867 7.549731 2.557232 1.466061 -3.178387 -5.940268 3.518199 1.449329 -0.548100 2.210000 -0.552000 -0.631091 2.493055 1.645138 -73.456017 9.660415 51.511478 121.125287 -56.359500 -79.562226 2.660639 -0.710440 133.918716 36.938089 27.601620 17.762000 -7.125000 0.000000 0.000000 10.771500 59.049200 3.725000 2.906297 0.863819 3.299714 80.050988 -23.090278 35.473303 -144.768549 38.649967 -104.538552 1.142949 -1.511502 -118.626709 -10.660385 8.002150 -1.284300 7.125000 0.000000 0.000000 13.030400 -21.616000 7.505900 
0.030748 1.784725 0.563204 -178.491670 26.198198 111.483553 -0.911820 1.279295 -0.792390 8.127565 -7.648157 -54.806385 12.885998 18.596806 68.222389 1.113810 5.203159 23.808267 2.522300 -9.878300 -28.583700 -1.251021 -1.305590 -0.839377 27.317633 17.193403 -65.118922 -20.787999 -19.697869 91.156091 0.554849 -12.811430 20.429521 -0.066500 -1.664300 4.578700 -7.373049 -6.167776 62.402768 1.166897 -1.533133 1.599327 5.818232 3.792101 7.709063 2.642881 1.525345 -3.242948 -5.978214 3.590964 1.444524 -0.585400 2.244100 -0.535800 -0.647713 2.535346 1.655875 -72.980149 9.017206 52.112320 120.825542 -56.442063 -79.238659 2.676694 -0.717003 133.926716 36.799054 27.637149 17.696600 -7.125000 0.000000 0.000000 10.607200 59.037000 3.664300 2.937071 0.802986 3.301884 79.465050 -22.389874 36.195814 -144.824073 38.649779 -104.570824 1.141088 -1.492915 -118.846073 -10.884541 8.105228 -1.336500 7.125000 0.000000 0.000000 12.851600 -21.505700 7.430700 
